<svg width="1200" height="900" viewBox="0 0 1200 900" fill="none" xmlns="http://www.w3.org/2000/svg">
  <rect width="1200" height="900" rx="48" fill="#103B36"/>
  <rect x="94" y="104" width="1012" height="692" rx="36" fill="#F4F7F3"/>
  <rect x="162" y="176" width="392" height="520" rx="26" fill="#EAF5F2"/>
  <rect x="594" y="176" width="434" height="240" rx="26" fill="#D9E7E1"/>
  <rect x="594" y="452" width="434" height="244" rx="26" fill="#166B63"/>
  <circle cx="732" cy="276" r="68" fill="#D79D35" fill-opacity="0.22"/>
  <circle cx="730" cy="276" r="36" fill="#166B63"/>
  <path d="M717 276L728 287L745 267" stroke="white" stroke-width="12" stroke-linecap="round" stroke-linejoin="round"/>
  <rect x="646" y="538" width="190" height="18" rx="9" fill="#F4F7F3" fill-opacity="0.9"/>
  <rect x="646" y="576" width="246" height="18" rx="9" fill="#F4F7F3" fill-opacity="0.64"/>
  <rect x="646" y="614" width="210" height="18" rx="9" fill="#F4F7F3" fill-opacity="0.52"/>
  <rect x="220" y="246" width="260" height="18" rx="9" fill="#103B36" fill-opacity="0.86"/>
  <rect x="220" y="286" width="180" height="18" rx="9" fill="#5F6E68" fill-opacity="0.3"/>
  <rect x="220" y="326" width="220" height="18" rx="9" fill="#5F6E68" fill-opacity="0.22"/>
  <rect x="220" y="366" width="160" height="18" rx="9" fill="#5F6E68" fill-opacity="0.18"/>
</svg>
